<svg id="visual" viewBox="0 0 675 900" width="675" height="900" xmlns="http://www.w3.org/2000/svg" xmlns:xlink="http://www.w3.org/1999/xlink" version="1.1"><path d="M0 109L675 118L675 0L0 0Z" fill="#b5f2e0"></path><path d="M0 127L675 181L675 116L0 107Z" fill="#acf1dd"></path><path d="M0 217L675 208L675 179L0 125Z" fill="#a3efd9"></path><path d="M0 388L675 352L675 206L0 215Z" fill="#99eed6"></path><path d="M0 487L675 379L675 350L0 386Z" fill="#8fecd2"></path><path d="M0 640L675 730L675 377L0 485Z" fill="#87e6cb"></path><path d="M0 694L675 739L675 728L0 638Z" fill="#7edfc3"></path><path d="M0 793L675 811L675 737L0 692Z" fill="#76d9bc"></path><path d="M0 901L675 901L675 809L0 791Z" fill="#6dd3b5"></path></svg>